<?xml version="1.0" encoding="UTF-8"?>
<!DOCTYPE svg PUBLIC "-//W3C//DTD SVG 1.1//EN" "http://www.w3.org/Graphics/SVG/1.1/DTD/svg11.dtd">
<svg xmlns="http://www.w3.org/2000/svg" version="1.1" width="1024px" height="267px" style="shape-rendering:geometricPrecision; text-rendering:geometricPrecision; image-rendering:optimizeQuality; fill-rule:evenodd; clip-rule:evenodd" xmlns:xlink="http://www.w3.org/1999/xlink">
<g><path style="opacity:0.979" fill="#fe6701" d="M 159.5,60.5 C 163.202,64.7203 166.369,69.3869 169,74.5C 172.498,85.7002 171.832,96.7002 167,107.5C 160.898,120.724 153.065,132.724 143.5,143.5C 142.167,144.5 140.833,145.5 139.5,146.5C 126.157,147.841 112.824,147.674 99.5,146C 92.8304,144.328 86.8304,141.328 81.5,137C 74.5934,130.764 68.4267,123.931 63,116.5C 49.3333,95.1667 35.6667,73.8333 22,52.5C 19.8381,46.0122 22.0048,41.8456 28.5,40C 56.1924,39.0814 83.8591,39.4148 111.5,41C 129.386,43.1222 145.386,49.6222 159.5,60.5 Z"/></g>
<g><path style="opacity:0.95" fill="#000000" d="M 511.5,78.5 C 546.49,78.3859 568.657,95.0526 578,128.5C 580.813,166.011 563.979,189.178 527.5,198C 499.445,201.549 477.611,191.716 462,168.5C 448.751,141.253 452.585,116.753 473.5,95C 484.703,85.8929 497.37,80.3929 511.5,78.5 Z M 509.5,107.5 C 535.9,107.069 548.067,120.069 546,146.5C 539.97,165.538 527.137,173.371 507.5,170C 490.251,162.338 483.418,149.171 487,130.5C 490.719,118.949 498.219,111.283 509.5,107.5 Z"/></g>
<g><path style="opacity:0.942" fill="#000000" d="M 621.5,80.5 C 641.452,79.6032 660.452,83.4365 678.5,92C 679.022,92.5613 679.355,93.228 679.5,94C 672.663,106.16 662.329,111.16 648.5,109C 642.561,107.515 636.561,106.348 630.5,105.5C 624.108,105.179 620.108,108.012 618.5,114C 619.083,116.499 620.416,118.499 622.5,120C 631.225,124.849 640.559,127.849 650.5,129C 676.014,136.526 684.847,153.026 677,178.5C 670.854,187.664 662.354,193.498 651.5,196C 629.757,200.599 609.091,197.599 589.5,187C 586.661,185.08 583.661,183.413 580.5,182C 579.707,180.915 579.04,179.748 578.5,178.5C 585.297,168.6 594.631,164.434 606.5,166C 615.371,169.013 624.371,171.513 633.5,173.5C 639.712,173.486 644.212,170.819 647,165.5C 647.399,160.538 645.232,157.038 640.5,155C 627.844,151.004 615.178,147.004 602.5,143C 594.071,139.571 588.904,133.404 587,124.5C 582.816,109.047 587.316,96.8806 600.5,88C 607.295,84.571 614.295,82.071 621.5,80.5 Z"/></g>
<g><path style="opacity:0.949" fill="#000000" d="M 830.5,80.5 C 842.186,80.1678 853.852,80.5011 865.5,81.5C 881.235,120.378 896.568,159.378 911.5,198.5C 894.497,198.667 877.497,198.5 860.5,198C 854.002,196.503 848.502,193.337 844,188.5C 837.945,180.778 832.278,172.778 827,164.5C 822.167,175.5 817.333,186.5 812.5,197.5C 803.92,198.689 797.087,195.689 792,188.5C 788.877,180.742 789.21,173.075 793,165.5C 805.515,137.141 818.015,108.807 830.5,80.5 Z M 846.5,119.5 C 852.26,133.537 857.927,147.703 863.5,162C 851.5,162.667 839.5,162.667 827.5,162C 834.127,147.946 840.461,133.78 846.5,119.5 Z"/></g>
<g><path style="opacity:0.949" fill="#000000" d="M 913.5,80.5 C 915.604,80.2011 917.604,80.5344 919.5,81.5C 927.929,97.3625 936.595,113.029 945.5,128.5C 954.738,113.032 963.738,97.3651 972.5,81.5C 983.48,80.5012 994.48,80.1679 1005.5,80.5C 991.887,107.055 977.72,133.388 963,159.5C 962.5,172.496 962.333,185.496 962.5,198.5C 951.833,198.5 941.167,198.5 930.5,198.5C 930.667,186.162 930.5,173.829 930,161.5C 918.949,141.396 908.449,121.063 898.5,100.5C 899.188,90.4053 904.188,83.7386 913.5,80.5 Z"/></g>
<g><path style="opacity:0.949" fill="#000000" d="M 347.5,81.5 C 370.529,81.1004 393.529,81.6004 416.5,83C 437.389,88.5691 447.722,102.236 447.5,124C 446.92,148.252 434.587,162.252 410.5,166C 400.172,166.5 389.839,166.666 379.5,166.5C 379.61,177.185 379.277,187.852 378.5,198.5C 363.116,198.617 353.283,191.284 349,176.5C 347.53,144.883 347.03,113.216 347.5,81.5 Z M 379.5,107.5 C 389.247,107.08 398.914,107.58 408.5,109C 417.326,116.019 418.826,124.519 413,134.5C 411.442,136.359 409.609,137.859 407.5,139C 398.248,140.417 388.915,140.917 379.5,140.5C 379.5,129.5 379.5,118.5 379.5,107.5 Z"/></g>
<g><path style="opacity:0.948" fill="#000000" d="M 693.5,81.5 C 716.529,81.1004 739.529,81.6004 762.5,83C 782.577,88.9251 792.577,102.425 792.5,123.5C 792.201,147.975 779.868,162.141 755.5,166C 745.172,166.5 734.839,166.666 724.5,166.5C 724.82,177.082 724.487,187.582 723.5,198C 705.568,197.745 695.401,188.579 693,170.5C 692.175,140.762 692.342,111.095 693.5,81.5 Z M 724.5,107.5 C 734.247,107.08 743.914,107.58 753.5,109C 761.521,114.643 763.688,122.143 760,131.5C 758.167,134.667 755.667,137.167 752.5,139C 743.248,140.417 733.915,140.917 724.5,140.5C 724.5,129.5 724.5,118.5 724.5,107.5 Z"/></g>
<g><path style="opacity:0.975" fill="#71236b" d="M 159.5,60.5 C 167.752,65.9156 174.918,72.5822 181,80.5C 191.884,95.0537 201.55,110.387 210,126.5C 211.865,132.19 213.032,138.023 213.5,144C 212.771,152.56 211.604,161.06 210,169.5C 209.1,172.718 207.933,175.718 206.5,178.5C 211.118,158.527 203.451,147.027 183.5,144C 169.969,143.609 156.636,143.442 143.5,143.5C 153.065,132.724 160.898,120.724 167,107.5C 171.832,96.7002 172.498,85.7002 169,74.5C 166.369,69.3869 163.202,64.7203 159.5,60.5 Z"/></g>
<g><path style="opacity:0.941" fill="#fe6700" d="M 211.5,106.5 C 232.329,105.337 253.329,105.171 274.5,106C 280.388,107.563 285.554,110.396 290,114.5C 295,121.167 300,127.833 305,134.5C 307.872,138.183 310.038,142.183 311.5,146.5C 296.488,146.311 281.488,146.644 266.5,147.5C 253.582,148.14 242.415,144.14 233,135.5C 227.667,127.5 222.333,119.5 217,111.5C 215.296,109.627 213.463,107.96 211.5,106.5 Z"/></g>
<g><path style="opacity:0.974" fill="#cf4121" d="M 143.5,143.5 C 156.636,143.442 169.969,143.609 183.5,144C 203.451,147.027 211.118,158.527 206.5,178.5C 192.887,198.62 179.054,218.62 165,238.5C 160.019,245.566 154.352,246.233 148,240.5C 140.582,228.662 132.915,216.996 125,205.5C 120.251,193.445 120.584,181.445 126,169.5C 129.531,161.166 134.031,153.499 139.5,146.5C 140.833,145.5 142.167,144.5 143.5,143.5 Z"/></g>
</svg>
